<svg width="25" height="24" viewBox="0 0 25 24" fill="none" xmlns="http://www.w3.org/2000/svg">
<g clip-path="url(#clip0_0_40)">
<path d="M6.32482 17.9665H0.640625V23.6507H6.32482V17.9665Z" fill="white"/>
<path d="M6.32482 9.03488H0.640625V14.7191H6.32482V9.03488Z" fill="white"/>
<path d="M6.32482 0.101471H0.640625V5.78567H6.32482V0.101471Z" fill="white"/>
<path d="M15.2582 17.9665H9.57404V23.6507H15.2582V17.9665Z" fill="white"/>
<path d="M15.2582 9.03488H9.57404V14.7191H15.2582V9.03488Z" fill="white"/>
<path d="M15.2582 0.101471H9.57404V5.78567H15.2582V0.101471Z" fill="white"/>
<path d="M24.1899 17.9665H18.5057V23.6507H24.1899V17.9665Z" fill="white"/>
<path d="M24.1899 9.03488H18.5057V14.7191H24.1899V9.03488Z" fill="white"/>
<path d="M24.1899 0.101471H18.5057V5.78567H24.1899V0.101471Z" fill="white"/>
</g>
<defs>
<clipPath id="clip0_0_40">
<rect width="23.5488" height="23.5488" fill="white" transform="translate(0.640625 0.101471)"/>
</clipPath>
</defs>
</svg>
